:SAMPLES-PER-SECOND 30
:FULLY-SPECIFIED
:DEGREES
219
root  -3.28444 40.8769 1.02856 172.521 -75.4154 -174.306
RightUpLeg  4.85002 -0.13499 -0.537861
RightLeg  -1.11075 -6.71234 -0.490091
RightFoot  -0.759666 -0.371641 3.97584
RightToes  -3.13006e-008 1.75238e-005 3.56266e-009
Spine  -8.615 -4.37678 -3.79875
Spine1  17.9034 -6.42258 5.56786
HEad  -12.0059 18.7319 11.5909
LeftShoulder1  2.55323 -4.30877 -26.5674
LeftArm  -58.5234 11.739 -41.5163
LeftForeArm  115.596 -79.9094 -106.739
LeftHand  2.18391 -6.14665 -21.3587
RightShoulder  2.41804 3.99367 26.2426
RightArm  0.58537 -34.5759 40.0664
RightForeArm  137.564 77.713 128.57
RightHand  -0.0685665 8.19038 -0.975795
LeftUpLeg  7.86691 2.35132 2.56496
LeftLeg  -1.57392 25.2625 -0.733183
LeftFoot  -2.87277 0.271997 -3.42145
LeftToes  4.76866e-008 1.46233e-008 1.30548e-009
220
root  -3.2654 40.8759 1.03169 173.907 -75.42 -175.507
RightUpLeg  4.28096 -0.242157 -0.836597
RightLeg  -0.512342 -6.51859 -0.661298
RightFoot  -1.01374 -0.380836 4.11843
RightToes  -3.13006e-008 1.75238e-005 3.56266e-009
Spine  -9.02016 -4.09014 -4.01619
Spine1  17.8506 -6.03456 5.56307
HEad  -11.9591 18.4501 11.3203
LeftShoulder1  2.65879 -4.52303 -27.0273
LeftArm  -60.7967 9.48433 -43.146
LeftForeArm  116.059 -79.8796 -107.204
LeftHand  2.08596 -5.93555 -20.7915
RightShoulder  2.47638 4.13675 26.4091
RightArm  0.118344 -34.4664 39.8668
RightForeArm  137.475 77.7706 128.288
RightHand  0.0981472 8.71525 0.411223
LeftUpLeg  7.77481 2.13516 2.20013
LeftLeg  -1.97594 25.5306 -0.961405
LeftFoot  -2.71206 0.267623 -3.36835
LeftToes  4.76866e-008 1.46233e-008 1.30548e-009
221
root  -3.27828 40.8757 1.02822 173.9 -75.7126 -175.645
RightUpLeg  4.4832 -0.335568 -0.90344
RightLeg  -0.485066 -6.70341 -0.661867
RightFoot  -1.09328 -0.380696 4.11531
RightToes  -3.13006e-008 1.75238e-005 3.56266e-009
Spine  -9.04244 -4.06968 -4.05969
Spine1  17.6518 -5.98537 5.56688
HEad  -11.8376 17.9353 11.2015
LeftShoulder1  2.7518 -4.72718 -27.3492
LeftArm  -61.9037 8.09922 -43.7728
LeftForeArm  114.839 -79.8631 -106.777
LeftHand  1.93818 -5.48662 -20.1289
RightShoulder  2.51272 4.26772 26.326
RightArm  0.821124 -33.621 39.6996
RightForeArm  136.149 77.848 127.579
RightHand  -0.10639 7.89824 -1.29693
LeftUpLeg  7.91672 2.1537 2.1933
LeftLeg  -1.98182 25.204 -1.00205
LeftFoot  -2.72365 0.255951 -3.19942
LeftToes  4.76866e-008 1.46233e-008 1.30548e-009
222
root  -3.27 40.8754 1.02331 173.951 -75.8925 -175.751
RightUpLeg  4.53335 -0.351111 -0.921345
RightLeg  -0.442388 -6.85499 -0.686428
RightFoot  -1.12568 -0.378467 4.07917
RightToes  -3.13006e-008 1.75238e-005 3.56266e-009
Spine  -9.30296 -4.03243 -4.00575
Spine1  17.9213 -5.86411 5.30368
HEad  -12.0294 17.6783 10.982
LeftShoulder1  2.7167 -4.6387 -27.2775
LeftArm  -61.3517 6.98848 -43.5362
LeftForeArm  112.309 -79.8934 -105.221
LeftHand  1.66541 -4.66482 -18.7621
RightShoulder  2.63611 4.52809 26.8224
RightArm  1.11502 -31.802 39.0443
RightForeArm  134.828 78.0033 126.482
RightHand  -0.154258 7.56295 -1.74537
LeftUpLeg  7.91726 2.13932 2.17314
LeftLeg  -1.93129 25.0587 -0.976956
LeftFoot  -2.71933 0.258028 -3.24251
LeftToes  4.76866e-008 1.46233e-008 1.30548e-009
223
root  -3.26415 40.8739 1.01816 173.805 -75.8771 -175.657
RightUpLeg  4.59403 -0.300654 -0.859213
RightLeg  -0.46321 -6.93156 -0.711822
RightFoot  -1.12073 -0.378306 4.07475
RightToes  -3.13006e-008 1.75238e-005 3.56266e-009
Spine  -10.1328 -4.03631 -3.85013
Spine1  18.9632 -5.7443 4.78316
HEad  -12.0525 17.8402 11.3305
LeftShoulder1  2.66239 -4.6231 -26.6523
LeftArm  -60.2941 5.72459 -42.9808
LeftForeArm  112.369 -79.8043 -106.184
LeftHand  1.4839 -3.99474 -17.9354
RightShoulder  2.88805 5.12488 27.505
RightArm  0.848907 -28.8164 38.4362
RightForeArm  132.708 78.207 124.87
RightHand  -0.188063 7.48031 -2.05945
LeftUpLeg  7.9512 2.18854 2.23078
LeftLeg  -1.87272 25.0084 -0.962146
LeftFoot  -2.77091 0.264882 -3.35984
LeftToes  4.76866e-008 1.46233e-008 1.30548e-009
224
root  -3.25064 40.8706 1.02319 173.571 -75.715 -175.573
RightUpLeg  4.72119 -0.264471 -0.811898
RightLeg  -0.464609 -6.82931 -0.736048
RightFoot  -1.14096 -0.37907 4.08451
RightToes  -3.13006e-008 1.75238e-005 3.56266e-009
Spine  -10.9758 -3.80247 -3.8561
Spine1  20.1278 -5.51296 4.71014
HEad  -12.327 18.0866 11.4398
LeftShoulder1  2.60055 -4.58827 -26.0056
LeftArm  -57.6544 4.6221 -41.9543
LeftForeArm  116.94 -79.5701 -110.436
LeftHand  1.32643 -4.21495 -15.6215
RightShoulder  3.03112 5.5517 27.501
RightArm  -0.603438 -24.8454 38.3332
RightForeArm  131.082 78.2079 124.385
RightHand  -0.109919 7.42434 -1.3455
LeftUpLeg  8.0674 2.24587 2.26738
LeftLeg  -1.74761 25.1101 -0.911654
LeftFoot  -2.86735 0.267602 -3.41422
LeftToes  4.76866e-008 1.46233e-008 1.30548e-009
